<?xml version="1.0" encoding="utf-8"?>
<!-- Generator: Adobe Illustrator 28.1.0, SVG Export Plug-In . SVG Version: 6.00 Build 0)  -->
<svg version="1.1" id="Layer_1" xmlns="http://www.w3.org/2000/svg" xmlns:xlink="http://www.w3.org/1999/xlink" x="0px" y="0px"
	 viewBox="0 0 180.29 177.15" style="enable-background:new 0 0 180.29 177.15;" xml:space="preserve">
<style type="text/css">
	.st0{opacity:0.29;}
	.st1{clip-path:url(#SVGID_00000067194445097409375310000012406400431364650415_);fill:#87E107;}
	.st2{clip-path:url(#SVGID_00000018927994530669007760000000335709371293545127_);fill:#87E107;}
	.st3{fill:none;stroke:#87E107;stroke-width:6;stroke-miterlimit:10;}
</style>
<g class="st0">
	<g>
		<defs>
			<path id="SVGID_1_" d="M169.58,86.91c0,43.94-35.62,79.56-79.56,79.56c-43.94,0-79.56-35.62-79.56-79.56
				c0-43.94,41.84-79.56,85.79-79.56C140.18,7.35,169.58,42.97,169.58,86.91"/>
		</defs>
		<clipPath id="SVGID_00000082339263635696026530000016099363898196583349_">
			<use xlink:href="#SVGID_1_"  style="overflow:visible;"/>
		</clipPath>
		<path style="clip-path:url(#SVGID_00000082339263635696026530000016099363898196583349_);fill:#87E107;" d="M175.92,15.18
			c-0.52,0-0.94-0.42-0.94-0.94c0-0.52,0.42-0.94,0.94-0.94c0.52,0,0.94,0.42,0.94,0.94C176.86,14.76,176.44,15.18,175.92,15.18"/>
		<path style="clip-path:url(#SVGID_00000082339263635696026530000016099363898196583349_);fill:#87E107;" d="M157.08,15.18
			c-0.52,0-0.94-0.42-0.94-0.94c0-0.52,0.42-0.94,0.94-0.94c0.52,0,0.94,0.42,0.94,0.94C158.02,14.76,157.6,15.18,157.08,15.18"/>
		<path style="clip-path:url(#SVGID_00000082339263635696026530000016099363898196583349_);fill:#87E107;" d="M138.24,15.18
			c-0.52,0-0.94-0.42-0.94-0.94c0-0.52,0.42-0.94,0.94-0.94c0.52,0,0.94,0.42,0.94,0.94C139.18,14.76,138.76,15.18,138.24,15.18"/>
		<path style="clip-path:url(#SVGID_00000082339263635696026530000016099363898196583349_);fill:#87E107;" d="M119.4,15.18
			c-0.52,0-0.94-0.42-0.94-0.94c0-0.52,0.42-0.94,0.94-0.94c0.52,0,0.94,0.42,0.94,0.94C120.34,14.76,119.92,15.18,119.4,15.18"/>
		<path style="clip-path:url(#SVGID_00000082339263635696026530000016099363898196583349_);fill:#87E107;" d="M100.56,15.23
			c-0.55,0-0.99-0.44-0.99-0.99c0-0.54,0.44-0.99,0.99-0.99c0.55,0,0.99,0.45,0.99,0.99C101.56,14.78,101.11,15.23,100.56,15.23"/>
		<path style="clip-path:url(#SVGID_00000082339263635696026530000016099363898196583349_);fill:#87E107;" d="M81.72,15.33
			c-0.61,0-1.1-0.49-1.1-1.09c0-0.6,0.49-1.1,1.1-1.1c0.61,0,1.1,0.49,1.1,1.1C82.82,14.84,82.33,15.33,81.72,15.33"/>
		<path style="clip-path:url(#SVGID_00000082339263635696026530000016099363898196583349_);fill:#87E107;" d="M62.88,15.49
			c-0.69,0-1.26-0.56-1.26-1.25s0.56-1.25,1.26-1.25c0.69,0,1.25,0.56,1.25,1.25S63.57,15.49,62.88,15.49"/>
		<path style="clip-path:url(#SVGID_00000082339263635696026530000016099363898196583349_);fill:#87E107;" d="M44.04,15.49
			c-0.69,0-1.26-0.56-1.26-1.25s0.56-1.25,1.26-1.25c0.69,0,1.25,0.56,1.25,1.25S44.73,15.49,44.04,15.49"/>
		<path style="clip-path:url(#SVGID_00000082339263635696026530000016099363898196583349_);fill:#87E107;" d="M25.2,15.49
			c-0.69,0-1.26-0.56-1.26-1.25s0.56-1.25,1.26-1.25c0.69,0,1.25,0.56,1.25,1.25S25.9,15.49,25.2,15.49"/>
		<path style="clip-path:url(#SVGID_00000082339263635696026530000016099363898196583349_);fill:#87E107;" d="M6.36,15.54
			c-0.72,0-1.31-0.58-1.31-1.3c0-0.72,0.58-1.3,1.31-1.3c0.72,0,1.31,0.58,1.31,1.3C7.67,14.96,7.08,15.54,6.36,15.54"/>
		<path style="clip-path:url(#SVGID_00000082339263635696026530000016099363898196583349_);fill:#87E107;" d="M175.92,33.93
			c-0.49,0-0.89-0.4-0.89-0.89c0-0.49,0.4-0.89,0.89-0.89c0.49,0,0.89,0.4,0.89,0.89C176.81,33.54,176.41,33.93,175.92,33.93"/>
		<path style="clip-path:url(#SVGID_00000082339263635696026530000016099363898196583349_);fill:#87E107;" d="M157.08,33.98
			c-0.52,0-0.94-0.42-0.94-0.94c0-0.52,0.42-0.94,0.94-0.94c0.52,0,0.94,0.42,0.94,0.94C158.02,33.56,157.6,33.98,157.08,33.98"/>
		<path style="clip-path:url(#SVGID_00000082339263635696026530000016099363898196583349_);fill:#87E107;" d="M138.24,33.98
			c-0.52,0-0.94-0.42-0.94-0.94c0-0.52,0.42-0.94,0.94-0.94c0.52,0,0.94,0.42,0.94,0.94C139.18,33.56,138.76,33.98,138.24,33.98"/>
		<path style="clip-path:url(#SVGID_00000082339263635696026530000016099363898196583349_);fill:#87E107;" d="M119.4,34.04
			c-0.55,0-0.99-0.44-0.99-0.99c0-0.55,0.44-0.99,0.99-0.99c0.55,0,0.99,0.44,0.99,0.99C120.39,33.59,119.95,34.04,119.4,34.04"/>
		<path style="clip-path:url(#SVGID_00000082339263635696026530000016099363898196583349_);fill:#87E107;" d="M100.56,34.14
			c-0.61,0-1.1-0.49-1.1-1.09c0-0.6,0.49-1.1,1.1-1.1c0.61,0,1.1,0.49,1.1,1.1C101.66,33.65,101.17,34.14,100.56,34.14"/>
		<path style="clip-path:url(#SVGID_00000082339263635696026530000016099363898196583349_);fill:#87E107;" d="M81.72,34.19
			c-0.63,0-1.15-0.52-1.15-1.15c0-0.63,0.52-1.15,1.15-1.15c0.63,0,1.15,0.51,1.15,1.15C82.87,33.68,82.36,34.19,81.72,34.19"/>
		<path style="clip-path:url(#SVGID_00000082339263635696026530000016099363898196583349_);fill:#87E107;" d="M62.88,34.35
			c-0.72,0-1.31-0.58-1.31-1.3c0-0.72,0.58-1.3,1.31-1.3c0.72,0,1.31,0.58,1.31,1.3C64.19,33.76,63.6,34.35,62.88,34.35"/>
		<path style="clip-path:url(#SVGID_00000082339263635696026530000016099363898196583349_);fill:#87E107;" d="M44.04,34.3
			c-0.69,0-1.26-0.56-1.26-1.25c0-0.69,0.56-1.25,1.26-1.25c0.69,0,1.25,0.56,1.25,1.25C45.29,33.74,44.73,34.3,44.04,34.3"/>
		<path style="clip-path:url(#SVGID_00000082339263635696026530000016099363898196583349_);fill:#87E107;" d="M25.2,34.3
			c-0.69,0-1.26-0.56-1.26-1.25c0-0.69,0.56-1.25,1.26-1.25c0.69,0,1.25,0.56,1.25,1.25C26.45,33.74,25.9,34.3,25.2,34.3"/>
		<path style="clip-path:url(#SVGID_00000082339263635696026530000016099363898196583349_);fill:#87E107;" d="M6.36,34.35
			c-0.72,0-1.31-0.58-1.31-1.3c0-0.72,0.58-1.3,1.31-1.3c0.72,0,1.31,0.58,1.31,1.3C7.67,33.76,7.08,34.35,6.36,34.35"/>
		<path style="clip-path:url(#SVGID_00000082339263635696026530000016099363898196583349_);fill:#87E107;" d="M175.92,52.74
			c-0.49,0-0.89-0.4-0.89-0.89c0-0.49,0.4-0.89,0.89-0.89c0.49,0,0.89,0.4,0.89,0.89C176.81,52.34,176.41,52.74,175.92,52.74"/>
		<path style="clip-path:url(#SVGID_00000082339263635696026530000016099363898196583349_);fill:#87E107;" d="M157.08,52.89
			c-0.58,0-1.04-0.47-1.04-1.04c0-0.58,0.47-1.04,1.04-1.04c0.58,0,1.05,0.46,1.05,1.04C158.13,52.43,157.66,52.89,157.08,52.89"/>
		<path style="clip-path:url(#SVGID_00000082339263635696026530000016099363898196583349_);fill:#87E107;" d="M138.24,52.95
			c-0.61,0-1.1-0.49-1.1-1.1c0-0.6,0.49-1.1,1.1-1.1c0.61,0,1.1,0.49,1.1,1.1C139.34,52.46,138.85,52.95,138.24,52.95"/>
		<path style="clip-path:url(#SVGID_00000082339263635696026530000016099363898196583349_);fill:#87E107;" d="M119.4,53
			c-0.63,0-1.15-0.52-1.15-1.15c0-0.63,0.52-1.15,1.15-1.15c0.63,0,1.15,0.52,1.15,1.15C120.55,52.48,120.04,53,119.4,53"/>
		<path style="clip-path:url(#SVGID_00000082339263635696026530000016099363898196583349_);fill:#87E107;" d="M100.56,53.05
			c-0.67,0-1.2-0.53-1.2-1.2c0-0.66,0.53-1.2,1.2-1.2c0.67,0,1.2,0.53,1.2,1.2C101.76,52.52,101.23,53.05,100.56,53.05"/>
		<path style="clip-path:url(#SVGID_00000082339263635696026530000016099363898196583349_);fill:#87E107;" d="M81.72,53.1
			c-0.69,0-1.26-0.56-1.26-1.25c0-0.69,0.56-1.25,1.26-1.25c0.69,0,1.26,0.56,1.26,1.25C82.98,52.54,82.41,53.1,81.72,53.1"/>
		<path style="clip-path:url(#SVGID_00000082339263635696026530000016099363898196583349_);fill:#87E107;" d="M62.88,53.16
			c-0.72,0-1.31-0.58-1.31-1.31c0-0.72,0.58-1.3,1.31-1.3c0.72,0,1.31,0.58,1.31,1.3C64.19,52.57,63.6,53.16,62.88,53.16"/>
		<path style="clip-path:url(#SVGID_00000082339263635696026530000016099363898196583349_);fill:#87E107;" d="M44.04,53.16
			c-0.72,0-1.31-0.58-1.31-1.31c0-0.72,0.58-1.3,1.31-1.3c0.72,0,1.31,0.58,1.31,1.3C45.35,52.57,44.76,53.16,44.04,53.16"/>
		<path style="clip-path:url(#SVGID_00000082339263635696026530000016099363898196583349_);fill:#87E107;" d="M25.2,53.16
			c-0.72,0-1.31-0.58-1.31-1.31c0-0.72,0.58-1.3,1.31-1.3c0.72,0,1.31,0.58,1.31,1.3C26.51,52.57,25.92,53.16,25.2,53.16"/>
		<path style="clip-path:url(#SVGID_00000082339263635696026530000016099363898196583349_);fill:#87E107;" d="M6.36,53.21
			C5.61,53.21,5,52.6,5,51.85c0-0.75,0.61-1.35,1.36-1.35c0.75,0,1.36,0.61,1.36,1.35C7.72,52.6,7.11,53.21,6.36,53.21"/>
		<path style="clip-path:url(#SVGID_00000082339263635696026530000016099363898196583349_);fill:#87E107;" d="M175.92,71.75
			c-0.6,0-1.1-0.49-1.1-1.09c0-0.61,0.49-1.1,1.1-1.1c0.61,0,1.1,0.49,1.1,1.1C177.02,71.26,176.53,71.75,175.92,71.75"/>
		<path style="clip-path:url(#SVGID_00000082339263635696026530000016099363898196583349_);fill:#87E107;" d="M157.08,71.81
			c-0.63,0-1.15-0.52-1.15-1.15c0-0.63,0.52-1.15,1.15-1.15c0.63,0,1.15,0.52,1.15,1.15C158.23,71.29,157.72,71.81,157.08,71.81"/>
		<path style="clip-path:url(#SVGID_00000082339263635696026530000016099363898196583349_);fill:#87E107;" d="M138.24,71.91
			c-0.69,0-1.26-0.56-1.26-1.25c0-0.69,0.56-1.25,1.26-1.25c0.69,0,1.26,0.56,1.26,1.25C139.5,71.35,138.93,71.91,138.24,71.91"/>
		<path style="clip-path:url(#SVGID_00000082339263635696026530000016099363898196583349_);fill:#87E107;" d="M119.4,71.91
			c-0.69,0-1.26-0.56-1.26-1.25c0-0.69,0.56-1.25,1.26-1.25c0.69,0,1.26,0.56,1.26,1.25C120.66,71.35,120.1,71.91,119.4,71.91"/>
		<path style="clip-path:url(#SVGID_00000082339263635696026530000016099363898196583349_);fill:#87E107;" d="M100.56,71.96
			c-0.72,0-1.31-0.58-1.31-1.3c0-0.72,0.58-1.31,1.31-1.31c0.72,0,1.31,0.58,1.31,1.31C101.87,71.38,101.28,71.96,100.56,71.96"/>
		<path style="clip-path:url(#SVGID_00000082339263635696026530000016099363898196583349_);fill:#87E107;" d="M81.72,72.12
			c-0.81,0-1.46-0.65-1.46-1.46c0-0.81,0.65-1.46,1.46-1.46c0.81,0,1.46,0.66,1.46,1.46C83.18,71.46,82.53,72.12,81.72,72.12"/>
		<path style="clip-path:url(#SVGID_00000082339263635696026530000016099363898196583349_);fill:#87E107;" d="M62.88,72.01
			c-0.75,0-1.36-0.61-1.36-1.35c0-0.75,0.61-1.36,1.36-1.36c0.75,0,1.36,0.61,1.36,1.36C64.24,71.41,63.63,72.01,62.88,72.01"/>
		<path style="clip-path:url(#SVGID_00000082339263635696026530000016099363898196583349_);fill:#87E107;" d="M44.04,71.96
			c-0.72,0-1.31-0.58-1.31-1.3c0-0.72,0.58-1.31,1.31-1.31c0.72,0,1.31,0.58,1.31,1.31C45.35,71.38,44.76,71.96,44.04,71.96"/>
		<path style="clip-path:url(#SVGID_00000082339263635696026530000016099363898196583349_);fill:#87E107;" d="M25.2,72.01
			c-0.75,0-1.36-0.61-1.36-1.35c0-0.75,0.61-1.36,1.36-1.36c0.75,0,1.36,0.61,1.36,1.36C26.56,71.41,25.95,72.01,25.2,72.01"/>
		<path style="clip-path:url(#SVGID_00000082339263635696026530000016099363898196583349_);fill:#87E107;" d="M6.36,72.01
			C5.61,72.01,5,71.41,5,70.66c0-0.75,0.61-1.36,1.36-1.36c0.75,0,1.36,0.61,1.36,1.36C7.72,71.41,7.11,72.01,6.36,72.01"/>
		<path style="clip-path:url(#SVGID_00000082339263635696026530000016099363898196583349_);fill:#87E107;" d="M169.7,90.92
			c-0.81,0-1.46-0.65-1.46-1.46c0-0.81,0.65-1.46,1.46-1.46c0.81,0,1.46,0.65,1.46,1.46C171.16,90.27,170.51,90.92,169.7,90.92"/>
		<path style="clip-path:url(#SVGID_00000082339263635696026530000016099363898196583349_);fill:#87E107;" d="M150.86,90.87
			c-0.78,0-1.41-0.63-1.41-1.41c0-0.78,0.63-1.41,1.41-1.41c0.78,0,1.41,0.63,1.41,1.41C152.27,90.24,151.64,90.87,150.86,90.87"/>
		<path style="clip-path:url(#SVGID_00000082339263635696026530000016099363898196583349_);fill:#87E107;" d="M132.02,90.82
			c-0.75,0-1.36-0.61-1.36-1.35c0-0.75,0.61-1.36,1.36-1.36c0.75,0,1.36,0.61,1.36,1.36C133.38,90.21,132.77,90.82,132.02,90.82"/>
		<path style="clip-path:url(#SVGID_00000082339263635696026530000016099363898196583349_);fill:#87E107;" d="M113.18,90.82
			c-0.75,0-1.36-0.61-1.36-1.35c0-0.75,0.61-1.36,1.36-1.36c0.75,0,1.36,0.61,1.36,1.36C114.54,90.21,113.93,90.82,113.18,90.82"/>
		<path style="clip-path:url(#SVGID_00000082339263635696026530000016099363898196583349_);fill:#87E107;" d="M94.34,90.98
			c-0.84,0-1.51-0.68-1.51-1.51c0-0.84,0.68-1.51,1.51-1.51c0.84,0,1.51,0.68,1.51,1.51C95.86,90.3,95.18,90.98,94.34,90.98"/>
		<path style="clip-path:url(#SVGID_00000082339263635696026530000016099363898196583349_);fill:#87E107;" d="M75.5,91.03
			c-0.87,0-1.57-0.7-1.57-1.57c0-0.87,0.7-1.57,1.57-1.57c0.87,0,1.57,0.7,1.57,1.57C77.07,90.33,76.37,91.03,75.5,91.03"/>
		<path style="clip-path:url(#SVGID_00000082339263635696026530000016099363898196583349_);fill:#87E107;" d="M56.66,90.87
			c-0.78,0-1.41-0.63-1.41-1.41c0-0.78,0.63-1.41,1.41-1.41c0.78,0,1.41,0.63,1.41,1.41C58.07,90.24,57.44,90.87,56.66,90.87"/>
		<path style="clip-path:url(#SVGID_00000082339263635696026530000016099363898196583349_);fill:#87E107;" d="M37.82,90.82
			c-0.75,0-1.36-0.61-1.36-1.35c0-0.75,0.61-1.36,1.36-1.36c0.75,0,1.36,0.61,1.36,1.36C39.18,90.21,38.57,90.82,37.82,90.82"/>
		<path style="clip-path:url(#SVGID_00000082339263635696026530000016099363898196583349_);fill:#87E107;" d="M18.98,90.82
			c-0.75,0-1.36-0.61-1.36-1.35c0-0.75,0.61-1.36,1.36-1.36c0.75,0,1.36,0.61,1.36,1.36C20.34,90.21,19.73,90.82,18.98,90.82"/>
		<path style="clip-path:url(#SVGID_00000082339263635696026530000016099363898196583349_);fill:#87E107;" d="M0.14,90.82
			c-0.75,0-1.36-0.61-1.36-1.35c0-0.75,0.61-1.36,1.36-1.36c0.75,0,1.36,0.61,1.36,1.36C1.5,90.21,0.89,90.82,0.14,90.82"/>
		<path style="clip-path:url(#SVGID_00000082339263635696026530000016099363898196583349_);fill:#87E107;" d="M169.7,110.04
			c-0.98,0-1.78-0.8-1.78-1.77c0-0.98,0.8-1.77,1.78-1.77c0.98,0,1.78,0.8,1.78,1.77C171.48,109.25,170.68,110.04,169.7,110.04"/>
		<path style="clip-path:url(#SVGID_00000082339263635696026530000016099363898196583349_);fill:#87E107;" d="M150.86,110.09
			c-1.01,0-1.83-0.81-1.83-1.82c0-1.01,0.82-1.83,1.83-1.83c1.01,0,1.83,0.81,1.83,1.83C152.69,109.28,151.87,110.09,150.86,110.09"
			/>
		<path style="clip-path:url(#SVGID_00000082339263635696026530000016099363898196583349_);fill:#87E107;" d="M132.02,109.89
			c-0.89,0-1.62-0.72-1.62-1.62c0-0.89,0.73-1.62,1.62-1.62c0.89,0,1.62,0.72,1.62,1.62C133.64,109.16,132.91,109.89,132.02,109.89"
			/>
		<path style="clip-path:url(#SVGID_00000082339263635696026530000016099363898196583349_);fill:#87E107;" d="M113.18,109.78
			c-0.84,0-1.51-0.68-1.51-1.51c0-0.84,0.68-1.51,1.51-1.51c0.84,0,1.51,0.68,1.51,1.51C114.7,109.11,114.02,109.78,113.18,109.78"
			/>
		<path style="clip-path:url(#SVGID_00000082339263635696026530000016099363898196583349_);fill:#87E107;" d="M94.34,109.84
			c-0.87,0-1.57-0.7-1.57-1.57c0-0.86,0.7-1.57,1.57-1.57c0.87,0,1.57,0.7,1.57,1.57C95.91,109.13,95.21,109.84,94.34,109.84"/>
		<path style="clip-path:url(#SVGID_00000082339263635696026530000016099363898196583349_);fill:#87E107;" d="M75.5,109.89
			c-0.89,0-1.62-0.72-1.62-1.62c0-0.89,0.73-1.62,1.62-1.62c0.89,0,1.62,0.72,1.62,1.62C77.12,109.16,76.4,109.89,75.5,109.89"/>
		<path style="clip-path:url(#SVGID_00000082339263635696026530000016099363898196583349_);fill:#87E107;" d="M56.66,109.73
			c-0.81,0-1.46-0.65-1.46-1.46c0-0.81,0.65-1.46,1.46-1.46c0.81,0,1.46,0.65,1.46,1.46C58.12,109.08,57.47,109.73,56.66,109.73"/>
		<path style="clip-path:url(#SVGID_00000082339263635696026530000016099363898196583349_);fill:#87E107;" d="M37.82,109.63
			c-0.75,0-1.36-0.61-1.36-1.36c0-0.75,0.61-1.36,1.36-1.36c0.75,0,1.36,0.61,1.36,1.36C39.18,109.02,38.57,109.63,37.82,109.63"/>
		<path style="clip-path:url(#SVGID_00000082339263635696026530000016099363898196583349_);fill:#87E107;" d="M18.98,109.63
			c-0.75,0-1.36-0.61-1.36-1.36c0-0.75,0.61-1.36,1.36-1.36c0.75,0,1.36,0.61,1.36,1.36C20.34,109.02,19.73,109.63,18.98,109.63"/>
		<path style="clip-path:url(#SVGID_00000082339263635696026530000016099363898196583349_);fill:#87E107;" d="M0.14,109.63
			c-0.75,0-1.36-0.61-1.36-1.36c0-0.75,0.61-1.36,1.36-1.36c0.75,0,1.36,0.61,1.36,1.36C1.5,109.02,0.89,109.63,0.14,109.63"/>
		<path style="clip-path:url(#SVGID_00000082339263635696026530000016099363898196583349_);fill:#87E107;" d="M169.7,129.21
			c-1.18,0-2.14-0.96-2.14-2.14c0-1.18,0.96-2.14,2.14-2.14c1.18,0,2.14,0.96,2.14,2.14C171.84,128.26,170.88,129.21,169.7,129.21"
			/>
		<path style="clip-path:url(#SVGID_00000082339263635696026530000016099363898196583349_);fill:#87E107;" d="M150.86,129.06
			c-1.1,0-1.99-0.89-1.99-1.98c0-1.1,0.89-1.98,1.99-1.98c1.1,0,1.98,0.89,1.98,1.98C152.85,128.17,151.96,129.06,150.86,129.06"/>
		<path style="clip-path:url(#SVGID_00000082339263635696026530000016099363898196583349_);fill:#87E107;" d="M132.02,128.9
			c-1.01,0-1.83-0.81-1.83-1.82c0-1.01,0.82-1.83,1.83-1.83c1.01,0,1.83,0.82,1.83,1.83C133.85,128.09,133.03,128.9,132.02,128.9"/>
		<path style="clip-path:url(#SVGID_00000082339263635696026530000016099363898196583349_);fill:#87E107;" d="M113.18,128.85
			c-0.98,0-1.78-0.8-1.78-1.77s0.79-1.77,1.78-1.77c0.98,0,1.78,0.8,1.78,1.77S114.16,128.85,113.18,128.85"/>
		<path style="clip-path:url(#SVGID_00000082339263635696026530000016099363898196583349_);fill:#87E107;" d="M94.34,128.85
			c-0.98,0-1.78-0.8-1.78-1.77s0.8-1.77,1.78-1.77c0.98,0,1.78,0.8,1.78,1.77S95.32,128.85,94.34,128.85"/>
		<path style="clip-path:url(#SVGID_00000082339263635696026530000016099363898196583349_);fill:#87E107;" d="M75.5,128.69
			c-0.89,0-1.62-0.72-1.62-1.62c0-0.89,0.73-1.62,1.62-1.62c0.89,0,1.62,0.72,1.62,1.62C77.12,127.97,76.4,128.69,75.5,128.69"/>
		<path style="clip-path:url(#SVGID_00000082339263635696026530000016099363898196583349_);fill:#87E107;" d="M56.66,128.54
			c-0.81,0-1.46-0.65-1.46-1.46c0-0.81,0.65-1.46,1.46-1.46c0.81,0,1.46,0.65,1.46,1.46C58.12,127.88,57.47,128.54,56.66,128.54"/>
		<path style="clip-path:url(#SVGID_00000082339263635696026530000016099363898196583349_);fill:#87E107;" d="M37.82,128.49
			c-0.78,0-1.41-0.63-1.41-1.41c0-0.78,0.63-1.41,1.41-1.41c0.78,0,1.41,0.63,1.41,1.41C39.23,127.85,38.6,128.49,37.82,128.49"/>
		<path style="clip-path:url(#SVGID_00000082339263635696026530000016099363898196583349_);fill:#87E107;" d="M18.98,128.43
			c-0.75,0-1.36-0.61-1.36-1.36c0-0.75,0.61-1.35,1.36-1.35c0.75,0,1.36,0.61,1.36,1.35C20.34,127.83,19.73,128.43,18.98,128.43"/>
		<path style="clip-path:url(#SVGID_00000082339263635696026530000016099363898196583349_);fill:#87E107;" d="M0.14,128.43
			c-0.75,0-1.36-0.61-1.36-1.36c0-0.75,0.61-1.35,1.36-1.35c0.75,0,1.36,0.61,1.36,1.35C1.5,127.83,0.89,128.43,0.14,128.43"/>
		<path style="clip-path:url(#SVGID_00000082339263635696026530000016099363898196583349_);fill:#87E107;" d="M169.7,148.23
			c-1.3,0-2.35-1.05-2.35-2.35c0-1.3,1.05-2.35,2.35-2.35c1.3,0,2.35,1.05,2.35,2.35C172.05,147.18,171,148.23,169.7,148.23"/>
		<path style="clip-path:url(#SVGID_00000082339263635696026530000016099363898196583349_);fill:#87E107;" d="M150.86,147.92
			c-1.13,0-2.04-0.91-2.04-2.04c0-1.12,0.91-2.03,2.04-2.03c1.13,0,2.04,0.91,2.04,2.03C152.9,147.01,151.99,147.92,150.86,147.92"
			/>
		<path style="clip-path:url(#SVGID_00000082339263635696026530000016099363898196583349_);fill:#87E107;" d="M132.02,147.71
			c-1.01,0-1.83-0.82-1.83-1.83c0-1.01,0.82-1.82,1.83-1.82c1.01,0,1.83,0.82,1.83,1.82C133.85,146.89,133.03,147.71,132.02,147.71"
			/>
		<path style="clip-path:url(#SVGID_00000082339263635696026530000016099363898196583349_);fill:#87E107;" d="M113.18,147.66
			c-0.98,0-1.78-0.79-1.78-1.77c0-0.98,0.79-1.77,1.78-1.77c0.98,0,1.78,0.79,1.78,1.77C114.96,146.86,114.16,147.66,113.18,147.66"
			/>
		<path style="clip-path:url(#SVGID_00000082339263635696026530000016099363898196583349_);fill:#87E107;" d="M94.34,147.6
			c-0.95,0-1.73-0.77-1.73-1.72c0-0.95,0.77-1.72,1.73-1.72c0.95,0,1.72,0.77,1.72,1.72C96.06,146.83,95.29,147.6,94.34,147.6"/>
		<path style="clip-path:url(#SVGID_00000082339263635696026530000016099363898196583349_);fill:#87E107;" d="M75.5,147.55
			c-0.92,0-1.67-0.75-1.67-1.67c0-0.92,0.75-1.67,1.67-1.67c0.92,0,1.67,0.75,1.67,1.67C77.17,146.81,76.43,147.55,75.5,147.55"/>
		<path style="clip-path:url(#SVGID_00000082339263635696026530000016099363898196583349_);fill:#87E107;" d="M56.66,147.4
			c-0.84,0-1.51-0.68-1.51-1.51c0-0.83,0.68-1.51,1.51-1.51c0.83,0,1.51,0.68,1.51,1.51C58.18,146.72,57.5,147.4,56.66,147.4"/>
		<path style="clip-path:url(#SVGID_00000082339263635696026530000016099363898196583349_);fill:#87E107;" d="M37.82,147.34
			c-0.81,0-1.46-0.65-1.46-1.46c0-0.81,0.65-1.46,1.46-1.46c0.81,0,1.46,0.66,1.46,1.46C39.28,146.69,38.63,147.34,37.82,147.34"/>
		<path style="clip-path:url(#SVGID_00000082339263635696026530000016099363898196583349_);fill:#87E107;" d="M18.98,147.29
			c-0.78,0-1.41-0.63-1.41-1.41c0-0.78,0.63-1.4,1.41-1.4c0.78,0,1.41,0.63,1.41,1.4C20.39,146.66,19.76,147.29,18.98,147.29"/>
		<path style="clip-path:url(#SVGID_00000082339263635696026530000016099363898196583349_);fill:#87E107;" d="M0.14,147.24
			c-0.75,0-1.36-0.61-1.36-1.36c0-0.75,0.61-1.35,1.36-1.35c0.75,0,1.36,0.61,1.36,1.35C1.5,146.63,0.89,147.24,0.14,147.24"/>
		<path style="clip-path:url(#SVGID_00000082339263635696026530000016099363898196583349_);fill:#87E107;" d="M169.7,167.14
			c-1.35,0-2.46-1.09-2.46-2.45c0-1.35,1.1-2.45,2.46-2.45c1.36,0,2.46,1.1,2.46,2.45C172.16,166.05,171.06,167.14,169.7,167.14"/>
		<path style="clip-path:url(#SVGID_00000082339263635696026530000016099363898196583349_);fill:#87E107;" d="M150.86,166.78
			c-1.15,0-2.09-0.93-2.09-2.08c0-1.15,0.94-2.09,2.09-2.09c1.16,0,2.09,0.93,2.09,2.09C152.95,165.84,152.02,166.78,150.86,166.78"
			/>
		<path style="clip-path:url(#SVGID_00000082339263635696026530000016099363898196583349_);fill:#87E107;" d="M132.02,166.57
			c-1.04,0-1.88-0.84-1.88-1.88c0-1.04,0.84-1.88,1.88-1.88c1.04,0,1.88,0.84,1.88,1.88C133.9,165.73,133.06,166.57,132.02,166.57"
			/>
		<path style="clip-path:url(#SVGID_00000082339263635696026530000016099363898196583349_);fill:#87E107;" d="M113.18,166.46
			c-0.98,0-1.78-0.8-1.78-1.77c0-0.98,0.79-1.77,1.78-1.77c0.98,0,1.78,0.8,1.78,1.77C114.96,165.67,114.16,166.46,113.18,166.46"/>
		<path style="clip-path:url(#SVGID_00000082339263635696026530000016099363898196583349_);fill:#87E107;" d="M94.34,166.31
			c-0.89,0-1.62-0.73-1.62-1.62c0-0.89,0.73-1.62,1.62-1.62c0.89,0,1.62,0.72,1.62,1.62C95.96,165.58,95.24,166.31,94.34,166.31"/>
		<path style="clip-path:url(#SVGID_00000082339263635696026530000016099363898196583349_);fill:#87E107;" d="M75.5,166.31
			c-0.89,0-1.62-0.73-1.62-1.62c0-0.89,0.73-1.62,1.62-1.62c0.89,0,1.62,0.72,1.62,1.62C77.12,165.58,76.4,166.31,75.5,166.31"/>
		<path style="clip-path:url(#SVGID_00000082339263635696026530000016099363898196583349_);fill:#87E107;" d="M56.66,166.31
			c-0.89,0-1.62-0.73-1.62-1.62c0-0.89,0.73-1.62,1.62-1.62c0.89,0,1.62,0.72,1.62,1.62C58.28,165.58,57.55,166.31,56.66,166.31"/>
		<path style="clip-path:url(#SVGID_00000082339263635696026530000016099363898196583349_);fill:#87E107;" d="M37.82,166.25
			c-0.87,0-1.57-0.7-1.57-1.56c0-0.87,0.7-1.57,1.57-1.57c0.87,0,1.57,0.7,1.57,1.57C39.39,165.55,38.69,166.25,37.82,166.25"/>
		<path style="clip-path:url(#SVGID_00000082339263635696026530000016099363898196583349_);fill:#87E107;" d="M18.98,166.31
			c-0.9,0-1.62-0.73-1.62-1.62c0-0.89,0.72-1.62,1.62-1.62c0.89,0,1.62,0.72,1.62,1.62C20.6,165.58,19.88,166.31,18.98,166.31"/>
		<path style="clip-path:url(#SVGID_00000082339263635696026530000016099363898196583349_);fill:#87E107;" d="M0.14,166.2
			c-0.84,0-1.52-0.68-1.52-1.51c0-0.84,0.68-1.51,1.52-1.51c0.84,0,1.51,0.68,1.51,1.51C1.66,165.53,0.98,166.2,0.14,166.2"/>
	</g>
</g>
<g class="st0">
	<g>
		<defs>
			<path id="SVGID_00000035507284066427336630000003318829624078360213_" d="M358.58,83.04c0,43.94-35.62,79.56-79.56,79.56
				c-43.94,0-79.56-35.62-79.56-79.56c0-43.94,41.84-79.56,85.79-79.56C329.18,3.48,358.58,39.1,358.58,83.04"/>
		</defs>
		<clipPath id="SVGID_00000042735582678230724740000005937865740519009961_">
			<use xlink:href="#SVGID_00000035507284066427336630000003318829624078360213_"  style="overflow:visible;"/>
		</clipPath>
		<path style="clip-path:url(#SVGID_00000042735582678230724740000005937865740519009961_);fill:#87E107;" d="M176.52,11.73
			c-0.75,0-1.36-0.61-1.36-1.36c0-0.75,0.61-1.36,1.36-1.36c0.75,0,1.36,0.61,1.36,1.36C177.87,11.12,177.26,11.73,176.52,11.73"/>
		<path style="clip-path:url(#SVGID_00000042735582678230724740000005937865740519009961_);fill:#87E107;" d="M176.52,30.59
			c-0.78,0-1.41-0.63-1.41-1.41c0-0.78,0.63-1.41,1.41-1.41c0.78,0,1.41,0.63,1.41,1.41C177.93,29.95,177.29,30.59,176.52,30.59"/>
		<path style="clip-path:url(#SVGID_00000042735582678230724740000005937865740519009961_);fill:#87E107;" d="M176.52,49.34
			c-0.75,0-1.36-0.61-1.36-1.36c0-0.75,0.61-1.35,1.36-1.35c0.75,0,1.36,0.61,1.36,1.35C177.87,48.73,177.26,49.34,176.52,49.34"/>
		<path style="clip-path:url(#SVGID_00000042735582678230724740000005937865740519009961_);fill:#87E107;" d="M176.52,68.14
			c-0.75,0-1.36-0.61-1.36-1.35c0-0.75,0.61-1.36,1.36-1.36c0.75,0,1.36,0.61,1.36,1.36C177.87,67.54,177.26,68.14,176.52,68.14"/>
		<path style="clip-path:url(#SVGID_00000042735582678230724740000005937865740519009961_);fill:#87E107;" d="M170.29,86.95
			c-0.75,0-1.36-0.61-1.36-1.35c0-0.75,0.61-1.36,1.36-1.36c0.75,0,1.36,0.61,1.36,1.36C171.65,86.34,171.04,86.95,170.29,86.95"/>
		<path style="clip-path:url(#SVGID_00000042735582678230724740000005937865740519009961_);fill:#87E107;" d="M170.29,105.76
			c-0.75,0-1.36-0.61-1.36-1.36c0-0.75,0.61-1.36,1.36-1.36c0.75,0,1.36,0.61,1.36,1.36C171.65,105.15,171.04,105.76,170.29,105.76"
			/>
		<path style="clip-path:url(#SVGID_00000042735582678230724740000005937865740519009961_);fill:#87E107;" d="M170.29,124.57
			c-0.75,0-1.36-0.61-1.36-1.36c0-0.75,0.61-1.35,1.36-1.35c0.75,0,1.36,0.61,1.36,1.35C171.65,123.96,171.04,124.57,170.29,124.57"
			/>
		<path style="clip-path:url(#SVGID_00000042735582678230724740000005937865740519009961_);fill:#87E107;" d="M170.29,143.48
			c-0.81,0-1.46-0.65-1.46-1.46c0-0.81,0.66-1.46,1.46-1.46c0.81,0,1.46,0.66,1.46,1.46C171.75,142.82,171.1,143.48,170.29,143.48"
			/>
		<path style="clip-path:url(#SVGID_00000042735582678230724740000005937865740519009961_);fill:#87E107;" d="M170.29,162.44
			c-0.9,0-1.62-0.73-1.62-1.62c0-0.89,0.72-1.62,1.62-1.62c0.89,0,1.62,0.72,1.62,1.62C171.91,161.71,171.19,162.44,170.29,162.44"
			/>
	</g>
</g>
<path class="st3" d="M59.62,149.88v-31.21c0-1.61,1.03-3.04,2.56-3.56c5.98-1.89,11.23-5.61,15-10.63
	c3.77-5.02,5.88-11.09,6.02-17.37c0.04-5.37-1.4-10.64-4.17-15.24c-2.77-4.6-6.76-8.34-11.53-10.8h-0.35v19.37
	c0,2.55-1.01,5.01-2.82,6.81c-1.81,1.81-4.26,2.82-6.81,2.82H45.32c-2.4,0-4.71-0.93-6.44-2.59c-1.73-1.67-2.75-3.94-2.84-6.34
	V61.47c0,0,0-0.4-0.3-0.4c-9.52,5.25-15.53,15.17-15.75,26.04c0.15,6.28,2.25,12.35,6.02,17.37c3.77,5.02,9.01,8.74,15,10.63
	c1.53,0.52,2.56,1.95,2.56,3.56v31.21"/>
</svg>
