<?xml version="1.0" encoding="utf-8"?>
<!-- Generator: Adobe Illustrator 28.1.0, SVG Export Plug-In . SVG Version: 6.00 Build 0)  -->
<svg version="1.1" id="Layer_1" xmlns="http://www.w3.org/2000/svg" xmlns:xlink="http://www.w3.org/1999/xlink" x="0px" y="0px"
	 viewBox="0 0 458.61 326.22" style="enable-background:new 0 0 458.61 326.22;" xml:space="preserve">
<style type="text/css">
	.st0{fill:#87E107;}
</style>
<g>
	<path id="XMLID_00000117667776673418525180000003575464328001349309_" class="st0" d="M413.94,65.88
		c-29.41-29.41-67.83-44.26-106.37-44.63V0l-72.14,69.22l72.14,69.22v-30.41c15.11,1.18,29.89,7.52,41.44,19.08
		c25.75,25.74,25.75,67.49,0,93.23c-25.75,25.75-67.49,25.75-93.23,0l-46.62-46.61l-55.56-63.18l-44.66-44.66
		C78.89,35.83,39.4,20.96,0,21.25v86.61c17.69-0.66,35.59,5.75,49.09,19.25l46.62,46.61l57.9,63.17l44.66,44.66
		c59.56,59.56,156.11,59.56,215.67,0C473.5,222,473.5,125.44,413.94,65.88z"/>
</g>
</svg>
