<?xml version="1.0" encoding="utf-8"?>
<!-- Generator: Adobe Illustrator 28.1.0, SVG Export Plug-In . SVG Version: 6.00 Build 0)  -->
<svg version="1.1" id="Layer_1" xmlns="http://www.w3.org/2000/svg" xmlns:xlink="http://www.w3.org/1999/xlink" x="0px" y="0px"
	 viewBox="0 0 130 73" style="enable-background:new 0 0 130 73;" xml:space="preserve">
<style type="text/css">
	.st0{fill:#3CAA02;}
	.st1{fill:#88E207;}
	.st2{fill:#FFFFFF;}
</style>
<g>
	<path class="st0" d="M65,13.91l5.44-5.44c7.25-7.25,19.01-7.25,26.26,0c7.25,7.25,7.25,19.01,0,26.26
		c-7.25,7.25-19.01,7.25-26.26,0L65,29.29l-5.44,5.44c-7.25,7.25-19.01,7.25-26.26,0c-7.25-7.25-7.25-19.01,0-26.26
		c7.25-7.25,19.01-7.25,26.26,0L65,13.91z M52.28,15.92c-3.13-3.13-8.22-3.13-11.35,0c-3.13,3.13-3.13,8.22,0,11.35
		c3.13,3.13,8.22,3.13,11.35,0l5.67-5.68L52.28,15.92z M71.76,21.6l5.67,5.68c3.13,3.13,8.22,3.13,11.35,0
		c3.13-3.13,3.13-8.22,0-11.35c-3.13-3.13-8.22-3.13-11.35,0L71.76,21.6z"/>
	<path class="st1" d="M96.69,8.47c-3.58-3.58-8.26-5.39-12.95-5.43V0.45l-8.78,8.43l8.78,8.43v-3.7c1.84,0.14,3.64,0.92,5.04,2.32
		c3.14,3.13,3.14,8.22,0,11.35c-3.13,3.14-8.22,3.14-11.35,0l-5.67-5.67L65,13.9l-5.44-5.44C55.9,4.81,51.1,3,46.3,3.03v10.54
		c2.15-0.08,4.33,0.7,5.98,2.34l5.67,5.68L65,29.29l5.44,5.44c7.25,7.25,19.01,7.25,26.26,0C103.94,27.47,103.94,15.72,96.69,8.47"
		/>
	<path class="st2" d="M7.25,72.55c-3.85,0-6.65-2.68-6.65-6.85c0-4.19,2.73-6.84,6.65-6.84c3.83,0,6.53,2.61,6.53,6.56
		c0,0.43-0.02,0.86-0.1,1.29H4c0.17,1.96,1.51,3.06,3.18,3.06c1.44,0,2.23-0.72,2.66-1.6h3.61C12.73,70.61,10.53,72.55,7.25,72.55
		 M4.02,64.46h6.29c-0.05-1.75-1.44-2.85-3.16-2.85C5.55,61.61,4.29,62.64,4.02,64.46"/>
	<polygon class="st2" points="21.43,68.22 19.01,72.33 15.42,72.33 19.75,65.68 15.37,59.07 19.15,59.07 21.86,63.17 24.3,59.07 
		27.89,59.07 23.53,65.68 27.94,72.33 24.15,72.33 	"/>
	<path class="st2" d="M30.88,61.83H29.3v-2.75h1.58v-3.28h3.38v3.28h2.97v2.75h-2.97v6.41c0,0.89,0.36,1.27,1.41,1.27h1.56v2.82
		h-2.11c-2.54,0-4.24-1.08-4.24-4.12V61.83z"/>
	<path class="st2" d="M46.03,72.55c-3.85,0-6.65-2.68-6.65-6.85c0-4.19,2.73-6.84,6.65-6.84c3.83,0,6.53,2.61,6.53,6.56
		c0,0.43-0.02,0.86-0.09,1.29h-9.69c0.17,1.96,1.51,3.06,3.18,3.06c1.44,0,2.23-0.72,2.66-1.6h3.61
		C51.51,70.61,49.31,72.55,46.03,72.55 M42.8,64.46h6.29c-0.05-1.75-1.44-2.85-3.16-2.85C44.33,61.61,43.06,62.64,42.8,64.46"/>
	<path class="st2" d="M64.89,65.01c0-2.13-1.17-3.28-2.94-3.28c-1.82,0-2.99,1.15-2.99,3.28v7.32h-3.35V59.07h3.35v1.65
		c0.86-1.12,2.3-1.84,4-1.84c3.09,0,5.29,2.01,5.29,5.67v7.78h-3.35V65.01z"/>
	<path class="st2" d="M77.25,58.86c1.75,0,3.42,0.81,4.33,2.06v-6.29h3.4v17.71h-3.4v-1.96c-0.79,1.22-2.27,2.18-4.36,2.18
		c-3.38,0-6.06-2.75-6.06-6.89C71.17,61.52,73.85,58.86,77.25,58.86 M78.08,61.81c-1.8,0-3.5,1.34-3.5,3.85
		c0,2.51,1.7,3.95,3.5,3.95c1.84,0,3.52-1.39,3.52-3.9S79.93,61.81,78.08,61.81"/>
	<rect x="93.71" y="54.63" class="st2" width="3.35" height="17.71"/>
	<path class="st2" d="M100.61,55.54c0-1.1,0.86-1.97,2.06-1.97c1.17,0,2.06,0.87,2.06,1.97c0,1.1-0.89,1.96-2.06,1.96
		C101.47,57.5,100.61,56.64,100.61,55.54 M100.96,59.08h3.35v13.26h-3.35V59.08z"/>
	<path class="st2" d="M108.58,61.83h-1.51v-2.75h1.51V58.4c0-3.26,1.84-4.76,5.58-4.67v2.82c-1.63-0.05-2.18,0.48-2.18,1.96v0.55
		h2.32v2.75h-2.32v10.51h-3.4V61.83z"/>
	<path class="st2" d="M122.87,72.55c-3.85,0-6.65-2.68-6.65-6.85c0-4.19,2.73-6.84,6.65-6.84c3.83,0,6.53,2.61,6.53,6.56
		c0,0.43-0.02,0.86-0.09,1.29h-9.69c0.17,1.96,1.51,3.06,3.18,3.06c1.44,0,2.23-0.72,2.66-1.6h3.61
		C128.35,70.61,126.14,72.55,122.87,72.55 M119.63,64.46h6.29c-0.05-1.75-1.44-2.85-3.16-2.85
		C121.17,61.61,119.9,62.64,119.63,64.46"/>
</g>
</svg>
